<svg width="18" height="18" viewBox="0 0 18 18" fill="none" xmlns="http://www.w3.org/2000/svg">
<path fill-rule="evenodd" clip-rule="evenodd" d="M5.87549 16.3524C5.56954 17.3116 4.73343 18 3.74995 18C2.50732 18 1.49998 16.9011 1.49998 15.5455C1.49998 14.4025 2.21611 13.4419 3.1856 13.1688L3.51774 12.0817C2.76183 11.735 2.21218 10.95 2.14564 10.0064L1.61723 2.51248C1.58237 2.01811 1.20449 1.63636 0.74999 1.63636C0.335782 1.63636 0 1.27005 0 0.818182C0 0.366312 0.335782 0 0.74999 0C1.98829 0 3.01782 1.04006 3.11279 2.38697L17.2498 2.40923C17.7227 2.40923 18.0776 2.88098 17.9853 3.38702L16.7255 10.297C16.5161 11.4455 15.5922 12.2727 14.5188 12.2727H5.0405L4.71777 13.329C5.25675 13.6095 5.67732 14.1172 5.87549 14.7385C5.91596 14.7311 5.95753 14.7273 5.99992 14.7273H12.1279C12.4367 13.7739 13.2702 13.0909 14.2498 13.0909C15.4924 13.0909 16.4998 14.1898 16.4998 15.5455C16.4998 16.9011 15.4924 18 14.2498 18C13.2702 18 12.4367 17.317 12.1279 16.3636H5.99992C5.95753 16.3636 5.91596 16.3598 5.87549 16.3524ZM3.73761 14.7274C3.32909 14.7346 2.99996 15.0981 2.99996 15.5455C2.99996 15.9973 3.33574 16.3636 3.74995 16.3636C4.16416 16.3636 4.49994 15.9973 4.49994 15.5455C4.49994 15.0981 4.17086 14.7346 3.76239 14.7274C3.75415 14.7275 3.74589 14.7275 3.73761 14.7274ZM4.51723 10.6364H14.5188C14.8766 10.6364 15.1845 10.3606 15.2543 9.97779L16.3359 4.04559H3.22974L3.6412 9.88093C3.67126 10.3072 3.99709 10.6364 4.38898 10.6364H4.48243C4.494 10.6361 4.5056 10.6361 4.51723 10.6364ZM14.2498 16.3636C14.664 16.3636 14.9998 15.9973 14.9998 15.5455C14.9998 15.0936 14.664 14.7273 14.2498 14.7273C13.8356 14.7273 13.4998 15.0936 13.4998 15.5455C13.4998 15.9973 13.8356 16.3636 14.2498 16.3636Z" fill="#404145"/>
</svg>
