<svg width="14" height="18" viewBox="0 0 14 18" fill="none" xmlns="http://www.w3.org/2000/svg">
<path fill-rule="evenodd" clip-rule="evenodd" d="M0 1C0 0.447715 0.447715 0 1 0C1.55228 0 2 0.447715 2 1V17C2 17.5523 1.55228 18 1 18C0.447715 18 0 17.5523 0 17V1Z" fill="#404145"/>
<path fill-rule="evenodd" clip-rule="evenodd" d="M4 3.83333C4 3.3731 4.44772 3 5 3C5.55228 3 6 3.3731 6 3.83333V17.1667C6 17.6269 5.55228 18 5 18C4.44772 18 4 17.6269 4 17.1667V3.83333Z" fill="#404145"/>
<path fill-rule="evenodd" clip-rule="evenodd" d="M8 5.72222C8 5.32335 8.44772 5 9 5C9.55228 5 10 5.32335 10 5.72222V17.2778C10 17.6767 9.55228 18 9 18C8.44772 18 8 17.6767 8 17.2778V5.72222Z" fill="#404145"/>
<path fill-rule="evenodd" clip-rule="evenodd" d="M12 1.94444C12 1.42284 12.4477 1 13 1C13.5523 1 14 1.42284 14 1.94444V17.0556C14 17.5772 13.5523 18 13 18C12.4477 18 12 17.5772 12 17.0556V1.94444Z" fill="#404145"/>
</svg>
