<svg width="22" height="22" viewBox="0 0 25 22" fill="none" xmlns="http://www.w3.org/2000/svg">
<path fill-rule="evenodd" clip-rule="evenodd" d="M11.6736 3.65973C9.46063 1.44676 5.8727 1.44676 3.65973 3.65973C1.44676 5.8727 1.44676 9.46063 3.65973 11.6736L11.1786 19.1925C11.8425 19.8564 12.9189 19.8564 13.5828 19.1925L21.1017 11.6736C23.3147 9.46063 23.3147 5.8727 21.1017 3.65973C18.8887 1.44676 15.3008 1.44676 13.0878 3.65973L12.3807 4.36684L11.6736 3.65973ZM12.3807 1.61955C9.37262 -0.731496 5.01387 -0.52284 2.24551 2.24551C-0.748505 5.23953 -0.748505 10.0938 2.24551 13.0878L9.76442 20.6067C11.2094 22.0517 13.5521 22.0517 14.997 20.6067L22.5159 13.0878C25.5099 10.0938 25.5099 5.23953 22.5159 2.24551C19.7476 -0.52284 15.3888 -0.731496 12.3807 1.61955Z" fill="#404145"/>
</svg>
