<svg width="24" height="24" viewBox="0 0 24 24" fill="none" xmlns="http://www.w3.org/2000/svg">
    <path fill-rule="evenodd" clip-rule="evenodd" d="M16.1185 21.7253C18.2294 21.8495 19.9334 20.8749 21.4046 19.4036C21.8467 18.9616 21.8467 18.2449 21.4046 17.8028L18.7784 15.1766C18.2396 14.6378 17.3661 14.6378 16.8273 15.1766C15.7047 16.2992 13.865 16.9712 12.1861 16.0241C11.4626 15.616 10.6287 15.0309 9.79893 14.2011C8.96914 13.3713 8.38399 12.5374 7.97588 11.8139C7.0288 10.135 7.7008 8.29528 8.82341 7.17267C9.36217 6.6339 9.36217 5.7604 8.82341 5.22163L6.19716 2.59538C5.75512 2.15334 5.03842 2.15334 4.59638 2.59538C3.12514 4.06662 2.15048 5.77056 2.27466 7.88154C2.4014 10.0362 3.686 12.8905 7.39775 16.6022C11.1095 20.314 13.9638 21.5986 16.1185 21.7253ZM15.9855 23.9853C13.0377 23.8119 9.68894 22.095 5.79697 18.203C1.905 14.3111 0.188119 10.9623 0.0147152 8.01448C-0.161256 5.02296 1.26526 2.72493 2.99559 0.9946C4.32173 -0.331533 6.47181 -0.331533 7.79795 0.9946L10.4242 3.62085C11.847 5.0437 11.847 7.3506 10.4242 8.77345C9.76546 9.43218 9.65704 10.1865 9.94766 10.7017C10.2664 11.2667 10.7309 11.9314 11.3997 12.6003C12.0686 13.2691 12.7333 13.7336 13.2983 14.0523C13.8135 14.343 14.5678 14.2345 15.2265 13.5758C16.6494 12.153 18.9563 12.153 20.3792 13.5758L23.0054 16.2021C24.3315 17.5282 24.3315 19.6783 23.0054 21.0044C21.2751 22.7347 18.977 24.1613 15.9855 23.9853Z" fill="#404145" />
</svg>