<svg width="18" height="18" viewBox="0 0 18 18" fill="none" xmlns="http://www.w3.org/2000/svg">
<path fill-rule="evenodd" clip-rule="evenodd" d="M11.9095 10.4385C12.0128 10.49 12.1097 10.5588 12.1958 10.6449L17.6788 16.128C18.1071 16.5562 18.1071 17.2506 17.6788 17.6788C17.2506 18.1071 16.5562 18.1071 16.128 17.6788L10.6449 12.1958C10.5588 12.1097 10.49 12.0128 10.4385 11.9095C9.3545 12.6957 8.02122 13.1593 6.57966 13.1593C2.94582 13.1593 0 10.2135 0 6.57966C0 2.94582 2.94582 0 6.57966 0C10.2135 0 13.1593 2.94582 13.1593 6.57966C13.1593 8.02122 12.6957 9.3545 11.9095 10.4385ZM6.57966 10.9661C9.00223 10.9661 10.9661 9.00223 10.9661 6.57966C10.9661 4.1571 9.00223 2.19322 6.57966 2.19322C4.1571 2.19322 2.19322 4.1571 2.19322 6.57966C2.19322 9.00223 4.1571 10.9661 6.57966 10.9661Z" fill="#404145"/>
</svg>
