<svg width="18" height="18" viewBox="0 0 18 18" fill="none" xmlns="http://www.w3.org/2000/svg">
<path fill-rule="evenodd" clip-rule="evenodd" d="M5.66064 18C12.4531 18 16.1683 11.0743 16.1683 5.06841C16.1683 4.87169 16.1683 4.67587 16.1575 4.48093C16.8803 3.83755 17.5042 3.04093 18 2.12836C17.326 2.49591 16.611 2.73695 15.8789 2.84343C16.6498 2.27544 17.2268 1.38207 17.5025 0.329598C16.7776 0.858997 15.9845 1.23209 15.1574 1.43278C14.0127 -0.0652487 12.1937 -0.431896 10.7205 0.538432C9.24723 1.50876 8.48612 3.57475 8.86392 5.57791C5.89456 5.39471 3.12802 3.66867 1.2528 0.829353C0.272608 2.90603 0.773271 5.56272 2.39616 6.89641C1.80845 6.87497 1.23356 6.67986 0.72 6.32754C0.72 6.34615 0.72 6.36564 0.72 6.38514C0.720481 8.54861 1.95966 10.412 3.6828 10.8404C3.13911 11.0229 2.56866 11.0496 2.01528 10.9184C2.49908 12.7698 3.88553 14.0381 5.46552 14.0746C4.15781 15.3395 2.54236 16.0261 0.87912 16.024C0.585291 16.0233 0.291747 16.0014 0 15.9584C1.68886 17.2923 3.65394 17.9997 5.66064 17.9965" fill="#404145"/>
</svg>
