<svg width="18" height="18" viewBox="0 0 18 18" fill="none" xmlns="http://www.w3.org/2000/svg">
<path fill-rule="evenodd" clip-rule="evenodd" d="M15.3772 2.61568C13.7002 0.935677 11.4173 -0.00628282 9.03777 3.15423e-05C4.09753 3.15423e-05 0.0769227 4.00092 0.0752037 8.91874C0.0730938 10.4839 0.485764 12.0219 1.27159 13.3777L0 18L4.75116 16.7597C6.0651 17.4722 7.53756 17.8456 9.0339 17.8456H9.03777C13.9772 17.8456 17.9982 13.8443 17.9999 8.92644C18.0076 6.55871 17.0632 4.28631 15.3772 2.61568ZM9.03777 16.3372H9.03476C7.70064 16.3378 6.3909 15.9814 5.24277 15.3052L4.97075 15.1448L2.15169 15.8808L2.90458 13.1437L2.7271 12.8632C1.98203 11.6815 1.58785 10.3142 1.59002 8.91916C1.59002 4.83274 4.93165 1.50629 9.04078 1.50629C11.0167 1.50742 12.9113 2.28969 14.3077 3.68099C15.7041 5.0723 16.4879 6.95868 16.4868 8.92515C16.4851 13.0129 13.1435 16.3372 9.03777 16.3372ZM13.1237 10.7847C12.8998 10.673 11.7988 10.1342 11.5934 10.0576C11.388 9.98107 11.2389 9.946 11.0898 10.1692C10.9406 10.3925 10.5113 10.8942 10.3807 11.043C10.2501 11.1918 10.1194 11.2102 9.89552 11.0986C9.67163 10.987 8.9501 10.7517 8.0945 9.99262C7.42884 9.40158 6.97719 8.67196 6.84827 8.44872C6.71935 8.22547 6.83452 8.10658 6.94668 7.99367C7.04723 7.89402 7.17057 7.73365 7.2823 7.60321C7.39403 7.47277 7.43185 7.38039 7.50619 7.23156C7.58054 7.08273 7.54358 6.95271 7.48771 6.84109C7.43185 6.72947 6.98363 5.63248 6.79713 5.18642C6.61535 4.7519 6.43099 4.8105 6.29348 4.80151C6.16456 4.7951 6.01329 4.79382 5.86374 4.79382C5.63427 4.79979 5.41773 4.90087 5.26641 5.07266C5.06143 5.29591 4.483 5.83477 4.483 6.93176C4.483 8.02874 5.28532 9.08852 5.39705 9.23735C5.50878 9.38618 6.97633 11.637 9.2217 12.6027C9.6387 12.7817 10.0649 12.9387 10.4984 13.0732C11.0348 13.2442 11.5229 13.219 11.9088 13.1617C12.3386 13.0975 13.2337 12.6224 13.4206 12.1019C13.6076 11.5814 13.6071 11.1349 13.5496 11.0421C13.492 10.9493 13.3476 10.898 13.1237 10.7864V10.7847Z" fill="#404145"/>
</svg>
