<svg width="24" height="18" viewBox="0 0 24 18" fill="none" xmlns="http://www.w3.org/2000/svg">
<path fill-rule="evenodd" clip-rule="evenodd" d="M23.4185 2.81639C23.1434 1.7078 22.3329 0.834703 21.3039 0.538406C19.4386 0 11.9591 0 11.9591 0C11.9591 0 4.47972 0 2.61442 0.538406C1.58536 0.83475 0.774876 1.7078 0.499796 2.81639C0 4.82578 0 9.01819 0 9.01819C0 9.01819 0 13.2106 0.499796 15.22C0.774876 16.3286 1.58536 17.1653 2.61442 17.4616C4.47972 18 11.9591 18 11.9591 18C11.9591 18 19.4386 18 21.3039 17.4616C22.3329 17.1653 23.1434 16.3286 23.4185 15.22C23.9183 13.2106 23.9183 9.01819 23.9183 9.01819C23.9183 9.01819 23.9183 4.82578 23.4185 2.81639ZM9.51294 12.8246V5.2118L15.7643 9.01828L9.51294 12.8246Z" fill="#404145"/>
</svg>
