<svg width="20" height="20" viewBox="0 0 20 20" fill="none" xmlns="http://www.w3.org/2000/svg">
<path fill-rule="evenodd" clip-rule="evenodd" d="M6.52832 18.1694C6.18838 19.2351 5.25937 20 4.16661 20C2.78592 20 1.66664 18.779 1.66664 17.2727C1.66664 16.0027 2.46235 14.9355 3.53955 14.632L3.9086 13.4241C3.0687 13.0389 2.45798 12.1667 2.38405 11.1183L1.79692 2.79164C1.75819 2.24234 1.33833 1.81818 0.833322 1.81818C0.373091 1.81818 0 1.41117 0 0.909091C0 0.407014 0.373091 0 0.833322 0C2.20921 0 3.35313 1.15563 3.45866 2.65219L19.1664 2.67692C19.6919 2.67692 20.0862 3.20108 19.9837 3.76336L18.5839 11.4411C18.3512 12.7172 17.3246 13.6364 16.132 13.6364H5.60055L5.24196 14.81C5.84083 15.1217 6.30814 15.6858 6.52832 16.3761C6.57329 16.3679 6.61948 16.3636 6.66657 16.3636H13.4754C13.8186 15.3044 14.7446 14.5455 15.8331 14.5455C17.2138 14.5455 18.3331 15.7665 18.3331 17.2727C18.3331 18.779 17.2138 20 15.8331 20C14.7446 20 13.8186 19.2411 13.4754 18.1818H6.66657C6.61948 18.1818 6.57329 18.1776 6.52832 18.1694V18.1694ZM4.1529 16.3638C3.69899 16.3718 3.33328 16.7757 3.33328 17.2727C3.33328 17.7748 3.70637 18.1818 4.1666 18.1818C4.62684 18.1818 4.99993 17.7748 4.99993 17.2727C4.99993 16.7757 4.63428 16.3718 4.18043 16.3638C4.17127 16.3639 4.16209 16.3639 4.1529 16.3638V16.3638ZM5.01915 11.8182H16.132C16.5295 11.8182 16.8717 11.5118 16.9493 11.0864L18.151 4.4951H3.5886L4.04578 10.9788C4.07918 11.4524 4.44121 11.8182 4.87665 11.8182H4.98048C4.99333 11.8179 5.00623 11.8179 5.01915 11.8182V11.8182ZM15.8331 18.1818C16.2933 18.1818 16.6664 17.7748 16.6664 17.2727C16.6664 16.7707 16.2933 16.3636 15.8331 16.3636C15.3729 16.3636 14.9998 16.7707 14.9998 17.2727C14.9998 17.7748 15.3729 18.1818 15.8331 18.1818Z" fill="#404145"/>
</svg>
