<svg width="23" height="21" viewBox="0 0 23 21" fill="none" xmlns="http://www.w3.org/2000/svg">
<path d="M11.5 5L10.5715 5.37139C10.7234 5.75105 11.0911 6 11.5 6C11.9089 6 12.2766 5.75105 12.4285 5.37139L11.5 5ZM12.0586 19.7121L12.5324 20.5927L12.0586 19.7121ZM11.6635 19.8835L11.4673 18.903L11.6635 19.8835ZM10.9414 19.7121L10.4676 20.5927L10.9414 19.7121ZM11.3365 19.8835L11.1403 20.8641L11.3365 19.8835ZM16.5 2C19.2847 2 21 4.37383 21 7H23C23 3.62617 20.7153 0 16.5 0V2ZM2 7C2 4.37383 3.71526 2 6.5 2V0C2.28474 0 0 3.62617 0 7H2ZM6.5 2C8.21147 2 9.66684 3.10969 10.5715 5.37139L12.4285 4.62861C11.3332 1.89031 9.29626 0 6.5 0V2ZM12.4285 5.37139C13.3332 3.10969 14.7885 2 16.5 2V0C13.7037 0 11.6668 1.89031 10.5715 4.62861L12.4285 5.37139ZM21 7C21 10.0512 19.274 12.6945 17.1438 14.7842C15.0258 16.862 12.6328 18.2676 11.5847 18.8315L12.5324 20.5927C13.6572 19.9875 16.2349 18.4776 18.5444 16.2119C20.8417 13.9582 23 10.83 23 7H21ZM11.4153 18.8315C10.3673 18.2676 7.97423 16.862 5.85623 14.7842C3.72605 12.6945 2 10.0512 2 7H0C0 10.83 2.15829 13.9582 4.45563 16.2119C6.76515 18.4776 9.34285 19.9875 10.4676 20.5927L11.4153 18.8315ZM11.5847 18.8315C11.5375 18.857 11.5042 18.8748 11.4756 18.8897C11.4476 18.9043 11.433 18.9113 11.4256 18.9147C11.4193 18.9175 11.4231 18.9155 11.4334 18.912C11.4447 18.9082 11.4567 18.9051 11.4673 18.903L11.8597 20.8641C12.1559 20.8048 12.3837 20.6728 12.5324 20.5927L11.5847 18.8315ZM10.4676 20.5927C10.6164 20.6728 10.8441 20.8048 11.1403 20.8641L11.5327 18.903C11.5433 18.9051 11.5553 18.9082 11.5666 18.912C11.5769 18.9155 11.5807 18.9175 11.5744 18.9147C11.567 18.9113 11.5524 18.9043 11.5244 18.8897C11.4958 18.8748 11.4625 18.857 11.4153 18.8315L10.4676 20.5927ZM11.4673 18.903C11.4847 18.8995 11.495 18.8985 11.4975 18.8983C11.5006 18.898 11.5011 18.8981 11.5 18.8981C11.4989 18.8981 11.4994 18.898 11.5025 18.8983C11.505 18.8985 11.5153 18.8995 11.5327 18.903L11.1403 20.8641C11.3669 20.9094 11.6331 20.9094 11.8597 20.8641L11.4673 18.903Z" fill="#404145"/>
</svg>
