<svg width="20" height="22" viewBox="0 0 20 22" fill="none" xmlns="http://www.w3.org/2000/svg">
<path d="M17.4393 7.6127L11.5446 2.37302L11.5446 2.37301C11.0279 1.91366 10.7695 1.68399 10.4818 1.58641C10.1693 1.48044 9.83066 1.48044 9.51821 1.58641C9.23051 1.68399 8.97213 1.91366 8.45536 2.37301L8.45535 2.37302L2.56071 7.6127C2.01722 8.0958 1.74548 8.33736 1.54452 8.62365C1.32562 8.93551 1.16813 9.28621 1.08047 9.65701C1 9.99741 1 10.361 1 11.0882V18.675C1 19.4444 1 19.8291 1.13779 20.128C1.28731 20.4523 1.54766 20.7127 1.87201 20.8622C2.17089 21 2.55559 21 3.325 21H5.175C5.94441 21 6.32911 21 6.62799 20.8622C6.95234 20.7127 7.21269 20.4523 7.36221 20.128C7.5 19.8291 7.5 19.4445 7.5 18.6754V15C7.5 14 8.25 12.5 10 12.5C11.75 12.5 12.5 14 12.5 15V18.6754C12.5 19.4445 12.5 19.8291 12.6378 20.128C12.7873 20.4523 13.0477 20.7127 13.372 20.8622C13.6709 21 14.0556 21 14.825 21H16.675C17.4444 21 17.8291 21 18.128 20.8622C18.4523 20.7127 18.7127 20.4523 18.8622 20.128C19 19.8291 19 19.4444 19 18.675V11.0882C19 10.361 19 9.99741 18.9195 9.65701C18.8319 9.28621 18.6744 8.93551 18.4555 8.62365C18.2545 8.33736 17.9828 8.0958 17.4393 7.6127Z" stroke="#404145" stroke-width="2" stroke-linejoin="round"/>
</svg>
