<svg width="20" height="20" viewBox="0 0 20 20" fill="none" xmlns="http://www.w3.org/2000/svg">
<path fill-rule="evenodd" clip-rule="evenodd" d="M10 0C7.50157 0 5.47619 1.97828 5.47619 4.4186C5.47619 6.85893 7.50157 8.83721 10 8.83721C12.4984 8.83721 14.5238 6.85893 14.5238 4.4186C14.5238 1.97828 12.4984 0 10 0ZM7.38095 4.4186C7.38095 3.00578 8.55354 1.86047 10 1.86047C11.4465 1.86047 12.619 3.00578 12.619 4.4186C12.619 5.83143 11.4465 6.97674 10 6.97674C8.55354 6.97674 7.38095 5.83143 7.38095 4.4186Z" fill="#404145"/>
<path fill-rule="evenodd" clip-rule="evenodd" d="M10 10.6977C2.50951 10.6977 0 14.6767 0 16.7442C0 17.6533 0.314394 18.4831 0.933708 19.088C1.55302 19.6929 2.40262 20 3.33333 20H16.6667C17.5974 20 18.447 19.6929 19.0663 19.088C19.6856 18.4831 20 17.6533 20 16.7442C20 14.6767 17.4905 10.6977 10 10.6977ZM1.90476 16.7442C1.90476 16.021 3.20478 12.5581 10 12.5581C16.7952 12.5581 18.0952 16.021 18.0952 16.7442C18.0952 17.2305 17.9334 17.5634 17.7194 17.7725C17.5054 17.9815 17.1645 18.1395 16.6667 18.1395H3.33333C2.83547 18.1395 2.4946 17.9815 2.28058 17.7725C2.06656 17.5634 1.90476 17.2305 1.90476 16.7442Z" fill="#404145"/>
</svg>
